<?xml version="1.0" encoding="UTF-8"?>
<svg width="35px" height="24px" viewBox="0 0 35 24" version="1.1" xmlns="http://www.w3.org/2000/svg" xmlns:xlink="http://www.w3.org/1999/xlink">
    <title>amex</title>
    <g id="00-Styles" stroke="none" stroke-width="1" fill="none" fill-rule="evenodd">
        <g id="Icon" transform="translate(-165.000000, -756.000000)">
            <g id="20x14" transform="translate(66.000000, 756.000000)">
                <g id="amex" transform="translate(99.240000, 0.000000)">
                    <path d="M31.6053048,0.263157895 C32.0568449,0.263157895 32.4656881,0.445156907 32.7615214,0.740029218 C33.0567799,1.03432862 33.2393802,1.44105384 33.2393802,1.89107016 L33.2393802,1.89107016 L33.2393802,21.4591837 C33.2393802,21.9091235 33.0572506,22.3164596 32.7616598,22.6110901 C32.4664115,22.9053794 32.0580758,23.0870959 31.6053048,23.0870959 L31.6053048,23.0870959 L1.89723327,23.0870959 C1.44569319,23.0870959 1.03685001,22.9050969 0.741016688,22.6102246 C0.445758147,22.3159252 0.263157895,21.9092 0.263157895,21.4591837 L0.263157895,21.4591837 L0.263157895,1.89107016 C0.263157895,1.4411303 0.445287422,1.03379425 0.740878231,0.739163658 C1.03612661,0.444874389 1.4444623,0.263157895 1.89723327,0.263157895 L1.89723327,0.263157895 Z" id="amex-bg" stroke="#FFFFFF" stroke-width="0.526315789"></path>
                    <path d="M29.429887,15.8676884 L27.9591086,15.8676884 L27.9591086,15.1449525 L29.2427424,15.1449525 C29.2427424,15.1449525 29.7107821,15.19805 29.7107821,14.8963746 C29.7107821,14.6136384 29.0110395,14.6356215 29.0110395,14.6356215 C29.0110395,14.6356215 27.8707051,14.7313324 27.8707051,13.7008335 C27.8707051,12.6757458 28.9008916,12.7342546 28.9008916,12.7342546 L30.4828873,12.7342546 L30.4828873,13.4671365 L29.2095911,13.4671365 C29.2095911,13.4671365 28.7686427,13.3815716 28.7686427,13.6906875 C28.7686427,13.9497496 29.3692878,13.9128856 29.3692878,13.9128856 C29.3692878,13.9128856 30.6308207,13.8229241 30.6308207,14.7681964 C30.6308207,15.7814471 29.8180784,15.8717468 29.5296974,15.8717468 C29.4676724,15.8717468 29.429887,15.8676884 29.429887,15.8676884 L29.429887,15.8676884 Z M22.0920361,15.8727614 L22.0920361,12.7396658 L24.6696412,12.7396658 L24.6696412,13.4671365 L22.9233147,13.4671365 L22.9233147,13.9497496 L24.6261523,13.9497496 L24.6261523,14.6620012 L22.9233147,14.6620012 L22.9233147,15.1936534 L24.6696412,15.1936534 L24.6696412,15.8727614 L22.0920361,15.8727614 Z M26.5157781,15.8676884 L25.0446433,15.8676884 L25.0446433,15.1449525 L26.3339805,15.1449525 C26.3339805,15.1449525 26.7966733,15.19805 26.7966733,14.8963746 C26.7966733,14.6136384 26.0969307,14.6356215 26.0969307,14.6356215 C26.0969307,14.6356215 24.9565962,14.7313324 24.9565962,13.7008335 C24.9565962,12.6757458 25.9867827,12.7342546 25.9867827,12.7342546 L27.5741254,12.7342546 L27.5741254,13.4671365 L26.2958387,13.4671365 C26.2958387,13.4671365 25.8545339,13.3815716 25.8545339,13.6906875 C25.8545339,13.9497496 26.454466,13.9128856 26.454466,13.9128856 C26.454466,13.9128856 27.7167118,13.8229241 27.7167118,14.7681964 C27.7167118,15.7814471 26.9039695,15.8717468 26.6155886,15.8717468 C26.5532071,15.8717468 26.5157781,15.8676884 26.5157781,15.8676884 L26.5157781,15.8676884 Z M15.3705149,15.8730996 L14.6490279,15.8730996 L13.7728346,14.9430464 L12.8916509,15.8730996 L12.3901034,15.8730996 L9.81748885,15.8730996 L9.81748885,12.7291816 L12.3901034,12.7291816 L12.8253482,12.7291816 L13.7728346,13.7275514 L14.7260245,12.7345928 L15.3598209,12.7345928 L15.3598209,12.7291816 L17.3649417,12.7291816 C17.3649417,12.7291816 18.411882,12.6175752 18.411882,13.6524707 C18.411882,14.5767745 18.0639713,14.8639073 16.9959994,14.8639073 L16.1861089,14.8639073 L16.1861089,15.8730996 L15.3705149,15.8730996 L15.3705149,15.8730996 Z M14.3349814,14.3281967 L15.3598209,15.421601 L15.3598209,13.2388507 L14.3349814,14.3281967 L14.3349814,14.3281967 Z M10.6494803,15.1933152 L12.3901034,15.1933152 L13.2056974,14.3281967 L12.3901034,13.4674747 L10.6494803,13.4674747 L10.6494803,13.9500878 L12.346258,13.9500878 L12.346258,14.6623394 L10.6494803,14.6623394 L10.6494803,15.1933152 L10.6494803,15.1933152 Z M16.1861089,14.0454605 L17.0398447,14.0454605 C17.287945,14.0454605 17.4918435,13.9128856 17.4918435,13.7481817 C17.4918435,13.5841541 17.287945,13.4509028 17.0398447,13.4509028 L16.1861089,13.4509028 L16.1861089,14.0454605 L16.1861089,14.0454605 Z M20.880052,15.8781726 L20.880052,15.2673813 C20.880052,15.2673813 20.8461878,14.789503 20.3282428,14.789503 L19.5247686,14.789503 L19.5247686,15.8781726 L18.6977677,15.8781726 L18.6977677,12.7396658 L20.7036014,12.7396658 C20.7036014,12.7396658 21.7501853,12.6175752 21.7501853,13.6582202 C21.7501853,14.2000184 21.2874926,14.3911021 21.2874926,14.3911021 C21.2874926,14.3911021 21.6842391,14.5717015 21.6842391,15.1023391 L21.6842391,15.8781726 L20.880052,15.8781726 L20.880052,15.8781726 Z M19.5247686,14.0512099 L20.3785045,14.0512099 C20.6266048,14.0512099 20.8301468,13.918635 20.8301468,13.7539311 C20.8301468,13.5892271 20.6266048,13.4566523 20.3785045,13.4566523 L19.5247686,13.4566523 L19.5247686,14.0512099 L19.5247686,14.0512099 Z M18.9020227,11.5820032 L19.7333012,11.5820032 L19.7333012,8.43335038 L18.9020227,8.43335038 L18.9020227,11.5820032 Z M12.5002513,11.5711808 L12.5002513,8.43301218 L15.0785693,8.43301218 L15.0785693,9.1655559 L13.3322428,9.1655559 L13.3322428,9.64884536 L15.034724,9.64884536 L15.034724,10.3604206 L13.3322428,10.3604206 L13.3322428,10.8920728 L15.0785693,10.8920728 L15.0785693,11.5711808 L12.5002513,11.5711808 Z M11.2055671,11.571519 L11.2055671,9.40466412 L10.1700336,11.571519 L9.49239194,11.571519 L8.451155,9.41514836 L8.451155,11.571519 L7.72931153,11.571519 L7.61916356,11.571519 L6.82032345,11.571519 L6.53372485,10.9130413 L5.02444817,10.9130413 L4.73250259,11.571519 L3.82886149,11.571519 L5.20054233,8.43267398 L6.36297768,8.43267398 L7.61916356,11.3165153 L7.61916356,8.43267398 L8.9248982,8.43267398 L9.83388629,10.3817273 L10.7371709,8.43267398 L12.0429056,8.43267398 L12.0429056,11.571519 L11.2055671,11.571519 Z M5.37699296,10.1108282 L6.18118006,10.1108282 L5.77908651,9.17637834 L5.37699296,10.1108282 Z M27.4408072,11.571519 L26.1304385,9.47365716 L26.1304385,11.571519 L25.4196455,11.571519 L25.2866837,11.571519 L24.5106574,11.571519 L24.2187118,10.9130413 L22.7090786,10.9130413 L22.4221236,11.571519 L21.6617818,11.571519 L21.5241859,11.571519 L21.1274394,11.571519 C21.1274394,11.571519 20.0152657,11.4172992 20.0152657,10.0898597 C20.0152657,8.34778549 21.2767986,8.41677853 21.3202874,8.40629429 L22.3394235,8.43267398 L22.3394235,9.13917621 L21.502798,9.14966045 C21.502798,9.14966045 20.9570487,9.14966045 20.8903895,9.834856 C20.8832602,9.91399508 20.8793391,9.98569372 20.880052,10.0529958 C20.8832602,11.1139328 21.8350242,10.7848631 21.8663932,10.774717 L22.8908763,8.43267398 L24.0472517,8.43267398 L25.2866837,11.2793132 L25.2866837,8.43267398 L26.4548225,8.43267398 L27.7495067,10.4987449 L27.7495067,8.43267398 L28.5818546,8.43267398 L28.5818546,11.571519 L27.4408072,11.571519 L27.4408072,11.571519 Z M23.0616234,10.1108282 L23.866167,10.1108282 L23.4694204,9.17637834 L23.0616234,10.1108282 L23.0616234,10.1108282 Z M17.6896821,11.571519 L17.6896821,10.9607277 C17.6896821,10.9607277 17.6568872,10.4828494 17.1389423,10.4828494 L16.3347552,10.4828494 L16.3347552,11.571519 L15.5081107,11.571519 L15.5081107,8.43267398 L17.5135879,8.43267398 C17.5135879,8.43267398 18.5601719,8.31058336 18.5601719,9.35156654 C18.5601719,9.89336481 18.0974791,10.0844485 18.0974791,10.0844485 C18.0974791,10.0844485 18.4995727,10.2650479 18.4995727,10.7960237 L18.4995727,11.571519 L17.6896821,11.571519 Z M16.3347552,9.74455629 L17.188491,9.74455629 C17.4365913,9.74455629 17.6401333,9.61164324 17.6401333,9.44693927 C17.6401333,9.2825735 17.4365913,9.14966045 17.188491,9.14966045 L16.3347552,9.14966045 L16.3347552,9.74455629 Z" id="amex-logo" fill="#FFFFFF"></path>
                </g>
            </g>
        </g>
    </g>
</svg>