<?xml version="1.0" encoding="UTF-8"?>
<svg width="34px" height="24px" viewBox="0 0 34 24" version="1.1" xmlns="http://www.w3.org/2000/svg" xmlns:xlink="http://www.w3.org/1999/xlink">
    <title>mastercard copy</title>
    <g id="00-Styles" stroke="none" stroke-width="1" fill="none" fill-rule="evenodd">
        <g id="Icon" transform="translate(-565.000000, -756.000000)">
            <g id="20x14" transform="translate(66.000000, 756.000000)">
                <g id="mastercard-copy" transform="translate(499.497462, 0.000000)">
                    <rect id="mastercard-bg" stroke="#FFFFFF" stroke-width="0.526315789" x="0.263157895" y="0.263157895" width="32.9762223" height="22.823938" rx="1.89473684"></rect>
                    <g id="mastercard-logo" transform="translate(6.171520, 5.346251)">
                        <path d="M14.9879776,0 C18.5911818,0 21.512156,2.88662533 21.512156,6.44745814 C21.512156,10.0082909 18.5911818,12.8949163 14.9879776,12.8949163 C13.3730554,12.8949163 11.895176,12.315066 10.755894,11.3545499 C9.6175127,12.314857 8.1393917,12.8949163 6.52417847,12.8949163 C2.92097419,12.8949163 2.27373675e-13,10.0082909 2.27373675e-13,6.44745814 C2.27373675e-13,2.88662533 2.92097419,0 6.52417847,0 C8.1393917,0 9.6175127,0.580059278 10.7568779,1.54088573 C11.895176,0.579850263 13.3730554,0 14.9879776,0 Z" id="Combined-Shape" fill="#6F71C9"></path>
                        <path d="M6.52417847,0 C8.1393917,0 9.6175127,0.580059278 10.7568779,1.54088573 C9.35321716,2.72294782 8.46379909,4.48255704 8.46379909,6.44745814 C8.46379909,8.41235924 9.35321716,10.1719685 10.755894,11.3545499 C9.6175127,12.314857 8.1393917,12.8949163 6.52417847,12.8949163 C2.92097419,12.8949163 0,10.0082909 0,6.44745814 C0,2.88662533 2.92097419,0 6.52417847,0 Z" id="Combined-Shape" fill="#E4021B"></path>
                        <path d="M14.9879776,0 C18.5911818,0 21.512156,2.88662533 21.512156,6.44745814 C21.512156,10.0082909 18.5911818,12.8949163 14.9879776,12.8949163 C13.3729445,12.8949163 11.8949731,12.3149864 10.7556594,11.3543521 C12.1591992,10.1714533 13.0483569,8.41207163 13.0483569,6.44745814 C13.0483569,4.48284465 12.1591992,2.72346295 10.7568779,1.54088573 C11.8949731,0.57992988 13.3729445,0 14.9879776,0 Z" id="Combined-Shape" fill="#019EDE"></path>
                    </g>
                </g>
            </g>
        </g>
    </g>
</svg>