<?xml version="1.0" encoding="UTF-8"?>
<svg width="35px" height="24px" viewBox="0 0 35 24" version="1.1" xmlns="http://www.w3.org/2000/svg" xmlns:xlink="http://www.w3.org/1999/xlink">
    <title>B06B9039-B005-4B78-A89F-BE941276DCDC</title>
    <g id="00-Styles" stroke="none" stroke-width="1" fill="none" fill-rule="evenodd">
        <g id="Icon" transform="translate(-264.000000, -756.000000)">
            <g id="20x14" transform="translate(66.000000, 756.000000)">
                <g id="mastercard" transform="translate(198.497462, 0.000000)">
                    <rect id="mastercard-bg" stroke="#FFFFFF" stroke-width="0.526315789" x="0.263157895" y="0.263157895" width="32.9762223" height="22.823938" rx="1.89473684"></rect>
                    <g id="mastercard-logo" transform="translate(5.995191, 5.227669)">
                        <path d="M15.1643067,0.118581793 C18.767511,0.118581793 21.6884852,3.00520713 21.6884852,6.56603993 C21.6884852,10.1268727 18.767511,13.0134981 15.1643067,13.0134981 C13.5493845,13.0134981 12.0715051,12.4336478 10.9322231,11.4731317 C9.79384185,12.4334388 8.31572084,13.0134981 6.70050761,13.0134981 C3.09730334,13.0134981 0.176329148,10.1268727 0.176329148,6.56603993 C0.176329148,3.00520713 3.09730334,0.118581793 6.70050761,0.118581793 C8.31572084,0.118581793 9.79384185,0.698641071 10.9332071,1.65946752 C12.0715051,0.698432056 13.5493845,0.118581793 15.1643067,0.118581793 Z" id="Combined-Shape" fill="#FF5E00"></path>
                        <path d="M6.70050761,0.118581793 C8.31572084,0.118581793 9.79384185,0.698641071 10.9332071,1.65946752 C9.52954631,2.84152962 8.64012824,4.60113883 8.64012824,6.56603993 C8.64012824,8.53094104 9.52954631,10.2905502 10.9322231,11.4731317 C9.79384185,12.4334388 8.31572084,13.0134981 6.70050761,13.0134981 C3.09730334,13.0134981 0.176329148,10.1268727 0.176329148,6.56603993 C0.176329148,3.00520713 3.09730334,0.118581793 6.70050761,0.118581793 Z" id="Combined-Shape" fill="#ED0006"></path>
                        <path d="M15.1643067,0.118581793 C18.767511,0.118581793 21.6884852,3.00520713 21.6884852,6.56603993 C21.6884852,10.1268727 18.767511,13.0134981 15.1643067,13.0134981 C13.5492736,13.0134981 12.0713022,12.4335682 10.9319885,11.4729339 C12.3355284,10.2900351 13.2246861,8.53065342 13.2246861,6.56603993 C13.2246861,4.60142644 12.3355284,2.84204475 10.9332071,1.65946752 C12.0713022,0.698511673 13.5492736,0.118581793 15.1643067,0.118581793 Z" id="Combined-Shape" fill="#F9A000"></path>
                    </g>
                </g>
            </g>
        </g>
    </g>
</svg>