<?xml version="1.0" encoding="UTF-8"?>
<svg width="34px" height="24px" viewBox="0 0 34 24" version="1.1" xmlns="http://www.w3.org/2000/svg" xmlns:xlink="http://www.w3.org/1999/xlink">
    <title>Paypal</title>
    <g id="00-Styles" stroke="none" stroke-width="1" fill="none" fill-rule="evenodd">
        <g id="Icon" transform="translate(-316.000000, -756.000000)" fill="#FFFFFF" fill-rule="nonzero">
            <g id="Paypal" transform="translate(316.000000, 756.000000)">
                <path d="M15.5175875,17.5348775 C15.5830787,17.5349094 15.6408191,17.5778348 15.6597174,17.6405401 L15.6597174,17.6405401 L15.9595615,18.6418388 L16.6669381,17.5998648 C16.69458,17.5592765 16.7404807,17.5349555 16.7895875,17.5348775 L16.7895875,17.5348775 L17.3024706,17.5348775 C17.3355221,17.5348775 17.3658322,17.5532576 17.3811475,17.5825466 C17.3964629,17.6118355 17.3942508,17.6472057 17.3754057,17.6743583 L17.3754057,17.6743583 L15.6695355,20.136696 C15.6418594,20.1765831 15.5963697,20.2003473 15.5478213,20.2002805 L15.5478213,20.2002805 L15.0355615,20.2002805 C15.0023246,20.2002805 14.9718603,20.1817531 14.9566039,20.1522245 C14.9413475,20.122696 14.9438516,20.0871209 14.963094,20.0600207 L14.963094,20.0600207 L15.4942109,19.3102544 L14.9292758,17.6523843 C14.9200096,17.6252163 14.9244425,17.5952452 14.9411765,17.5719228 C14.9579105,17.5486004 14.9848829,17.5348015 15.0135875,17.5348775 L15.0135875,17.5348775 Z M13.3250161,17.4868778 C13.5709381,17.4868778 13.8173278,17.5404882 13.9278213,17.7008518 L13.9278213,17.7008518 L13.9635096,17.7525921 L13.986107,17.6098388 C13.9929311,17.56667 14.0301423,17.5348785 14.0738472,17.5348778 L14.0738472,17.5348778 L14.5842368,17.5348778 C14.6101689,17.5348698 14.6348003,17.5462333 14.6516247,17.5659668 C14.6684492,17.5857003 14.6757744,17.6118188 14.6716654,17.6374233 L14.6716654,17.6374233 L14.3958213,19.3842804 C14.3845335,19.4563499 14.3224317,19.5094572 14.2494836,19.5094233 L14.2494836,19.5094233 L13.7897433,19.5094233 C13.7637566,19.5093845 13.7390901,19.4979685 13.7222424,19.478183 C13.7053947,19.4583975 13.6980557,19.4322268 13.7021589,19.4065661 L13.7021589,19.4065661 L13.7249122,19.2647479 C13.7249122,19.2647479 13.4729122,19.5569557 13.0184706,19.5569557 C12.7536914,19.5569557 12.5311459,19.4805921 12.3756135,19.2973194 C12.206055,19.0979947 12.1367044,18.8121765 12.1854836,18.5132674 C12.2793018,17.9140466 12.7610161,17.4868778 13.3250161,17.4868778 Z M20.9275615,17.4868778 C21.1734836,17.4868778 21.4197174,17.5404882 21.5302109,17.7008518 L21.5302109,17.7008518 L21.566055,17.7525921 L21.5886524,17.6098388 C21.5952834,17.5666257 21.6325181,17.5347575 21.6762368,17.5348778 L21.6762368,17.5348778 L22.1863148,17.5348778 C22.2123014,17.5348475 22.2370028,17.546178 22.2539319,17.5658936 C22.2708611,17.5856093 22.2783262,17.6117401 22.2743667,17.6374233 L22.2743667,17.6374233 L21.9983667,19.3842804 C21.9870881,19.4562916 21.925074,19.5093804 21.8521849,19.5094233 L21.8521849,19.5094233 L21.3926005,19.5094233 C21.3665593,19.5094758 21.3418067,19.498099 21.324889,19.4783016 C21.3079712,19.4585043 21.3005926,19.4322806 21.3047044,19.4065661 L21.3047044,19.4065661 L21.3274576,19.2647479 C21.3274576,19.2647479 21.0754576,19.5569557 20.6210161,19.5569557 C20.3562368,19.5569557 20.1340031,19.4805921 19.9781589,19.2973194 C19.8086005,19.0979947 19.7395615,18.8121765 19.7881849,18.5132674 C19.8820031,17.9140466 20.3635615,17.4868778 20.9275615,17.4868778 Z M11.3983148,16.5490076 C11.755042,16.5490076 12.0237174,16.6431375 12.1751979,16.8211116 C12.31312,16.9831895 12.3587823,17.2146181 12.311094,17.5091635 C12.2052758,18.1824103 11.800081,18.5221505 11.0980031,18.5221505 L11.0980031,18.5221505 L10.7606005,18.5221505 C10.6877114,18.5221933 10.6256973,18.5752822 10.6144187,18.6472934 L10.6144187,18.6472934 L10.4981589,19.3844362 C10.4868712,19.4565058 10.4247694,19.509613 10.3518213,19.5095792 L10.3518213,19.5095792 L9.84299009,19.5095792 C9.81701268,19.5096171 9.79232035,19.4982821 9.77541446,19.4785586 C9.75850857,19.458835 9.75108341,19.4326996 9.75509399,19.4070336 L9.75509399,19.4070336 L10.1861589,16.6739947 C10.1975156,16.6019871 10.2595989,16.5489617 10.3324966,16.5490076 L10.3324966,16.5490076 Z M19.0005485,16.5490077 C19.3572758,16.5490077 19.6257953,16.6431375 19.77712,16.8211116 C19.915042,16.9831895 19.9610161,17.2146181 19.9131719,17.5091635 C19.8071979,18.1824103 19.4021589,18.5221505 18.6999252,18.5221505 L18.6999252,18.5221505 L18.3626784,18.5221505 C18.2897893,18.5221933 18.2277752,18.5752822 18.2164966,18.6472934 L18.2164966,18.6472934 L18.0941589,19.4219947 C18.0862625,19.4723614 18.042907,19.5095043 17.9919252,19.5095791 L17.9919252,19.5095791 L17.4449122,19.5095791 C17.4189711,19.5095791 17.3943308,19.4982202 17.3774831,19.4784947 C17.3606355,19.4587691 17.3532702,19.4326554 17.3573278,19.4070336 L17.3573278,19.4070336 L17.7883927,16.6739947 C17.7997402,16.6020454 17.8617359,16.5490384 17.9345745,16.5490077 L17.9345745,16.5490077 Z M23.368081,16.5488518 C23.3940358,16.5488978 23.4186723,16.5602928 23.435514,16.5800414 C23.4523558,16.59979 23.4597181,16.6259166 23.4556654,16.6515531 L23.4556654,16.6515531 L23.0242888,19.3844362 C23.013068,19.4565921 22.951042,19.5095791 22.8779511,19.5095791 L22.8779511,19.5095791 L22.4381589,19.5095791 C22.4122178,19.5095791 22.3875775,19.4982202 22.3707299,19.4784947 C22.3538822,19.4587691 22.3465169,19.4326554 22.3505745,19.4070336 L22.3505745,19.4070336 L22.7880291,16.6239687 C22.7948358,16.5808301 22.8319414,16.5490065 22.8756135,16.5488518 L22.8756135,16.5488518 Z M13.446107,18.0281246 C13.1554576,18.0281246 12.9201329,18.2302544 12.8741589,18.5193453 C12.8501589,18.6611635 12.8788342,18.7884882 12.9542628,18.8779427 C13.0303148,18.9680207 13.1487563,19.0155531 13.2969641,19.0155531 C13.5921329,19.0155531 13.8235615,18.8198129 13.8728083,18.5282284 C13.895094,18.3870336 13.8642368,18.2589297 13.7864706,18.1671375 C13.7088602,18.0762804 13.591042,18.0281246 13.446107,18.0281246 Z M21.0481849,18.0281246 C20.7575355,18.0281246 20.5225226,18.2302544 20.4762368,18.5193453 C20.4525485,18.6611635 20.4809122,18.7884882 20.5563407,18.8779427 C20.6323927,18.9680207 20.7511459,19.0155531 20.899042,19.0155531 C21.1942109,19.0155531 21.4259511,18.8198129 21.4748862,18.5282284 C21.4974836,18.3870336 21.4666265,18.2589297 21.3885485,18.1671375 C21.3109381,18.0762804 21.19312,18.0281246 21.0481849,18.0281246 Z M11.0016914,17.1404362 L10.9279771,17.1404362 C10.8842722,17.1404362 10.8470609,17.1722284 10.8402368,17.2153973 L10.8402368,17.2153973 L10.7274057,17.929631 L10.9653512,17.9293437 C11.2219777,17.9264704 11.4682888,17.8948636 11.5212758,17.5471895 C11.5426265,17.4128518 11.5254836,17.3156051 11.4695355,17.2501505 C11.3757174,17.1404362 11.1941589,17.1404362 11.0016914,17.1404362 L11.0016914,17.1404362 Z M18.604081,17.1404362 L18.5303667,17.1404362 C18.4866723,17.1403822 18.4494749,17.1722184 18.4427823,17.2153973 L18.4427823,17.2153973 L18.3297953,17.929631 L18.5676237,17.9293437 C18.8243661,17.9264704 19.0706642,17.8948636 19.1235096,17.5471895 C19.1448602,17.4128518 19.1278732,17.3156051 19.0719252,17.2501505 C18.978107,17.1404362 18.7963927,17.1404362 18.604081,17.1404362 L18.604081,17.1404362 Z" id="Combined-Shape"></path>
                <path d="M31.6053048,0 C32.6531178,0 33.5025381,0.844842689 33.5025381,1.89107016 L33.5025381,21.4591837 C33.5025381,22.5035929 32.6576249,23.3502538 31.6053048,23.3502538 L1.89723327,23.3502538 C0.849420269,23.3502538 0,22.5054111 0,21.4591837 L0,1.89107016 C0,0.846660948 0.844913205,0 1.89723327,0 L31.6053048,0 Z M31.6053048,0.526315789 L1.89723327,0.526315789 C1.18167848,0.526315789 0.598673623,1.06635822 0.532560785,1.75942197 L0.526315789,1.89107016 L0.526315789,21.4591837 C0.526315789,22.1692643 1.06904429,22.7516399 1.76503421,22.8176977 L1.89723327,22.823938 L31.6053048,22.823938 C32.3208596,22.823938 32.9038644,22.2838956 32.9699773,21.5908318 L32.9762223,21.4591837 L32.9762223,1.89107016 C32.9762223,1.18098952 32.4334938,0.598613895 31.7375039,0.532556142 L31.6053048,0.526315789 Z" id="amex-bg"></path>
                <path d="M21.011715,7.04882968 C21.1556997,6.11526004 21.0107535,5.48016867 20.5142584,4.90472407 C19.9676451,4.27134389 18.9801836,4 17.7167713,4 L14.0493662,4 C13.7912032,4 13.5712598,4.19104076 13.5311171,4.45052863 L12.003893,14.2986005 C11.9738461,14.4929414 12.1215567,14.6685816 12.3148184,14.6685816 L14.5789128,14.6685816 L14.4226689,15.676343 C14.3963478,15.8463607 14.5254293,16 14.6946535,16 L16.6031128,16 C16.8289453,16 17.0212455,15.8329157 17.0564605,15.6059402 L17.0752098,15.5071808 L17.4346909,13.1887796 L17.4578872,13.0606857 C17.4931021,12.8338324 17.6854023,12.6665037 17.9112349,12.6665037 L18.1966805,12.6665037 C20.0455267,12.6665037 21.4931866,11.9027073 21.9161268,9.69357697 C22.0929228,8.77051885 22.00146,8 21.5340504,7.45829004 C21.3928299,7.29475035 21.2168752,7.15932286 21.011715,7.04882968 L21.011715,7.04882968" id="Path" opacity="0.68"></path>
                <path d="M21.011715,7.04882968 C21.1556997,6.11526004 21.0107535,5.48016867 20.5142584,4.90472407 C19.9676451,4.27134389 18.9801836,4 17.7167713,4 L14.0493662,4 C13.7912032,4 13.5712598,4.19104076 13.5311171,4.45052863 L12.003893,14.2986005 C11.9738461,14.4929414 12.1215567,14.6685816 12.3148184,14.6685816 L14.5789128,14.6685816 L15.1476407,11.0009167 L15.1299731,11.1159323 C15.1702359,10.8565666 15.3881361,10.6654037 15.6464193,10.6654037 L16.7225793,10.6654037 C18.8359584,10.6654037 20.4908218,9.79221414 20.9742164,7.26700483 C20.9886389,7.19244637 21.0007779,7.11996578 21.011715,7.04882968" id="Path" opacity="0.7"></path>
                <path d="M15.7586745,7.0611746 C15.7828323,6.90521298 15.8813861,6.77736356 16.0139531,6.71282772 C16.0741671,6.68349325 16.1415923,6.66711483 16.2121424,6.66711483 L19.0869102,6.66711483 C19.4275219,6.66711483 19.7450576,6.68984905 20.0353107,6.73739534 C20.1182402,6.75096254 20.1990063,6.76660759 20.2774888,6.7843305 C20.3558511,6.80205341 20.4320501,6.82173196 20.5057251,6.84373281 C20.5426227,6.85461101 20.5787992,6.86622258 20.6144949,6.87820082 C20.7570374,6.92635825 20.8898447,6.98307156 21.0119553,7.0489519 C21.1559401,6.11538226 21.0109938,5.4802909 20.5144988,4.9048463 C19.9676451,4.27134389 18.9801836,4 17.7167713,4 L14.0493662,4 C13.7912032,4 13.5712598,4.19104076 13.5311171,4.45052863 L12.003893,14.2986005 C11.9738461,14.4929414 12.1215567,14.6685816 12.3148184,14.6685816 L14.5789128,14.6685816 L15.1476407,11.0009167 L15.7586745,7.0611746 Z" id="Path"></path>
            </g>
        </g>
    </g>
</svg>