<?xml version="1.0" encoding="UTF-8"?>
<svg width="34px" height="24px" viewBox="0 0 34 24" version="1.1" xmlns="http://www.w3.org/2000/svg" xmlns:xlink="http://www.w3.org/1999/xlink">
    <title>visa</title>
    <g id="00-Styles" stroke="none" stroke-width="1" fill="none" fill-rule="evenodd">
        <g id="Icon" transform="translate(-66.000000, -756.000000)">
            <g id="visa" transform="translate(66.000000, 756.000000)">
                <path d="M31.6053048,0.263157895 C32.0568449,0.263157895 32.4656881,0.445156907 32.7615214,0.740029218 C33.0567799,1.03432862 33.2393802,1.44105384 33.2393802,1.89107016 L33.2393802,1.89107016 L33.2393802,21.4591837 C33.2393802,21.9091235 33.0572506,22.3164596 32.7616598,22.6110901 C32.4664115,22.9053794 32.0580758,23.0870959 31.6053048,23.0870959 L31.6053048,23.0870959 L1.89723327,23.0870959 C1.44569319,23.0870959 1.03685001,22.9050969 0.741016688,22.6102246 C0.445758147,22.3159252 0.263157895,21.9092 0.263157895,21.4591837 L0.263157895,21.4591837 L0.263157895,1.89107016 C0.263157895,1.4411303 0.445287422,1.03379425 0.740878231,0.739163658 C1.03612661,0.444874389 1.4444623,0.263157895 1.89723327,0.263157895 L1.89723327,0.263157895 Z" id="visa-bg" stroke="#FFFFFF" stroke-width="0.526315789"></path>
                <path d="M11.4147933,15.5736853 L9.4515446,15.5736853 L7.97934735,9.96962437 C7.90947063,9.71183756 7.76110225,9.48393909 7.54285714,9.37652792 C6.9982016,9.10659898 6.39802756,8.89177665 5.74329224,8.78343147 L5.74329224,8.56767513 L8.90593183,8.56767513 C9.34242204,8.56767513 9.6697897,8.89177665 9.72435098,9.26818274 L10.4882088,13.3105787 L12.4505004,8.56767513 L14.3591878,8.56767513 L11.4147933,15.5736853 Z M15.4504133,15.5736853 L13.5962872,15.5736853 L15.1230457,8.56767513 L16.9771719,8.56767513 L15.4504133,15.5736853 Z M19.3759536,10.5085482 C19.4305149,10.1312081 19.7578825,9.91545178 20.1398115,9.91545178 C20.7399855,9.86127919 21.3937636,9.96962437 21.9393764,10.2386193 L22.266744,8.73019289 C21.7211313,8.51443655 21.1209572,8.40609137 20.5763017,8.40609137 C18.7767368,8.40609137 17.4672661,9.37652792 17.4672661,10.7233706 C17.4672661,11.7479797 18.3948078,12.2859695 19.0495431,12.6100711 C19.7578825,12.9332386 20.0306889,13.1489949 19.9761276,13.4721624 C19.9761276,13.9569137 19.4305149,14.1726701 18.8858593,14.1726701 C18.231124,14.1726701 17.5763887,14.0110863 16.9771719,13.7411574 L16.6498042,15.2505178 C17.3045395,15.5195127 18.0128789,15.6278579 18.6676142,15.6278579 C20.6854242,15.6810964 21.9393764,14.7115939 21.9393764,13.2564061 C21.9393764,11.4238782 19.3759536,11.316467 19.3759536,10.5085482 L19.3759536,10.5085482 Z M28.4283394,15.5736853 L26.9561421,8.56767513 L25.3748223,8.56767513 C25.0474547,8.56767513 24.720087,8.78343147 24.6109645,9.10659898 L21.8848151,15.5736853 L23.7935025,15.5736853 L24.1744743,14.5500102 L26.5196519,14.5500102 L26.737897,15.5736853 L28.4283394,15.5736853 Z M25.6476287,10.4543756 L26.1922843,13.0948223 L24.6655257,13.0948223 L25.6476287,10.4543756 Z" id="visa-logo" fill="#FFFFFF"></path>
            </g>
        </g>
    </g>
</svg>